<?xml version="1.0" encoding="utf-8"?>
<!-- Generator: Adobe Illustrator 16.0.0, SVG Export Plug-In . SVG Version: 6.00 Build 0)  -->
<!DOCTYPE svg PUBLIC "-//W3C//DTD SVG 1.1//EN" "http://www.w3.org/Graphics/SVG/1.1/DTD/svg11.dtd">
<svg version="1.1" id="圖層_1" xmlns="http://www.w3.org/2000/svg" xmlns:xlink="http://www.w3.org/1999/xlink" x="0px" y="0px"
	 width="45px" height="45px" viewBox="0 0 45 45" enable-background="new 0 0 45 45" xml:space="preserve">
<g opacity="1">
	<path fill="#FFFFFF" d="M43.957,33.75c0.014,0,0.031-0.006,0.053-0.014c0.014,0,0.027,0,0.037-0.01
		c0.018-0.004,0.031-0.012,0.049-0.014c0.014,0,0.027-0.012,0.041-0.018c0.016-0.004,0.029-0.014,0.043-0.018
		c0.018-0.008,0.031-0.018,0.041-0.021c0.014-0.01,0.031-0.014,0.043-0.023c0.014-0.008,0.023-0.018,0.041-0.025
		c0.018-0.014,0.027-0.02,0.041-0.027c0.014-0.014,0.025-0.021,0.035-0.027c0.018-0.018,0.039-0.035,0.059-0.049
		c0.004-0.01,0.008-0.01,0.012-0.018c0.002,0,0.006-0.008,0.01-0.01c0.018-0.014,0.039-0.039,0.055-0.061
		c0.012-0.014,0.018-0.023,0.029-0.033c0.006-0.018,0.02-0.029,0.027-0.045c0.01-0.012,0.018-0.025,0.023-0.043
		c0.012-0.006,0.014-0.02,0.025-0.037c0.006-0.016,0.014-0.029,0.02-0.047c0.008-0.01,0.016-0.023,0.018-0.033
		c0.012-0.014,0.012-0.035,0.021-0.045c0-0.016,0.008-0.035,0.014-0.049c0.004-0.012,0.008-0.025,0.01-0.045
		c0.004-0.016,0.008-0.029,0.008-0.047c0.004-0.018,0.008-0.033,0.014-0.049c0-0.02,0-0.027,0.004-0.041
		c0.004-0.035,0.004-0.068,0.004-0.098V12.197c0-0.539-0.436-0.965-0.959-0.965H13.393c-0.01,0-0.018,0-0.023,0
		c-0.025,0-0.039,0-0.059,0c-0.016,0-0.029,0.01-0.039,0.01c-0.018,0-0.035,0-0.053,0c-0.014,0.004-0.027,0.01-0.049,0.014
		c-0.01,0-0.023,0.008-0.041,0.01c-0.018,0.008-0.031,0.012-0.049,0.018c-0.014,0.004-0.023,0.008-0.037,0.012
		c-0.018,0.006-0.035,0.014-0.043,0.018c-0.014,0.01-0.035,0.016-0.049,0.023c-0.01,0.008-0.027,0.014-0.037,0.021
		c-0.018,0.01-0.025,0.014-0.043,0.027c-0.014,0.006-0.023,0.01-0.033,0.018c-0.012,0.018-0.031,0.023-0.047,0.035
		c-0.006,0.014-0.02,0.014-0.033,0.031c-0.012,0.006-0.021,0.016-0.029,0.031c-0.016,0.006-0.027,0.02-0.041,0.033
		c0,0.008-0.006,0.018-0.018,0.021c-0.006,0.008-0.006,0.01-0.006,0.01c-0.014,0.016-0.025,0.031-0.035,0.047
		c-0.014,0.006-0.018,0.02-0.031,0.033c-0.008,0.014-0.014,0.025-0.025,0.043c-0.006,0.014-0.014,0.027-0.02,0.037
		c-0.012,0.014-0.018,0.031-0.025,0.045c-0.006,0.012-0.01,0.029-0.018,0.043c-0.006,0.01-0.014,0.023-0.018,0.041
		c-0.006,0.014-0.014,0.027-0.014,0.045c-0.006,0.012-0.01,0.025-0.018,0.043c-0.002,0.016-0.006,0.033-0.006,0.047
		c-0.008,0.016-0.008,0.029-0.014,0.039c0,0.018-0.004,0.035-0.008,0.057c-0.004,0.01-0.004,0.031-0.004,0.041
		c0,0.014,0,0.035,0,0.053c0,0.01,0,0.01,0,0.02v5.943c0,0.531,0.428,0.965,0.963,0.965s0.963-0.434,0.963-0.965v-3.807l8.574,7.59
		c-0.047,0.029-0.084,0.07-0.125,0.109l-8.449,8.443v-6.338c0-0.529-0.428-0.967-0.963-0.967s-0.963,0.438-0.963,0.967v1.182H7.447
		c-0.535,0-0.967,0.428-0.967,0.959c0,0.539,0.432,0.969,0.967,0.969h4.982v5.557c0,0.533,0.428,0.963,0.963,0.963h30.381
		c0.027,0,0.059-0.004,0.09-0.004c0.018-0.002,0.027-0.002,0.041-0.002C43.922,33.762,43.939,33.758,43.957,33.75L43.957,33.75z
		 M42.811,30.477l-8.451-8.443c-0.004-0.008-0.012-0.008-0.018-0.018l6.352-5.387c0.406-0.342,0.455-0.953,0.107-1.359
		c-0.344-0.402-0.947-0.451-1.357-0.111l-10.846,9.209L15.939,13.164h26.871V30.477z M24.17,23.395
		c0.066-0.07,0.121-0.143,0.166-0.227l3.604,3.191c0.186,0.162,0.414,0.246,0.641,0.246c0.225,0,0.443-0.076,0.625-0.227
		l3.674-3.119c0.033,0.045,0.072,0.096,0.117,0.135l8.441,8.447H15.725L24.17,23.395z M24.17,23.395"/>
	<path fill="#FFFFFF" d="M1.234,22.209h16.279c0.539,0,0.971-0.428,0.971-0.965c0-0.529-0.432-0.959-0.971-0.959H1.234
		c-0.535,0-0.967,0.43-0.967,0.959C0.268,21.781,0.699,22.209,1.234,22.209L1.234,22.209z M1.234,22.209"/>
	<path fill="#FFFFFF" d="M2.92,16.896h7.311c0.531,0,0.967-0.432,0.967-0.963s-0.436-0.963-0.967-0.963H2.92
		c-0.533,0-0.967,0.432-0.967,0.963S2.387,16.896,2.92,16.896L2.92,16.896z M2.92,16.896"/>
	<path fill="#FFFFFF" d="M8.305,29.389h-7.07c-0.535,0-0.967,0.436-0.967,0.963c0,0.535,0.432,0.967,0.967,0.967h7.07
		c0.533,0,0.957-0.432,0.957-0.967C9.262,29.824,8.838,29.389,8.305,29.389L8.305,29.389z M8.305,29.389"/>
</g>
</svg>
