<?xml version="1.0" encoding="utf-8"?>
<!-- Generator: Adobe Illustrator 16.0.0, SVG Export Plug-In . SVG Version: 6.00 Build 0)  -->
<!DOCTYPE svg PUBLIC "-//W3C//DTD SVG 1.1//EN" "http://www.w3.org/Graphics/SVG/1.1/DTD/svg11.dtd">
<svg version="1.1" id="圖層_1" xmlns="http://www.w3.org/2000/svg" xmlns:xlink="http://www.w3.org/1999/xlink" x="0px" y="0px"
	 width="45px" height="45px" viewBox="0 0 45 45" enable-background="new 0 0 45 45" xml:space="preserve">
<g opacity="1">
	<g>
		<path fill-rule="evenodd" clip-rule="evenodd" fill="#FFFFFF" d="M29.289,19.07c0.104,0.25-0.015,0.539-0.261,0.643
			c-0.247,0.104-0.532-0.01-0.637-0.258c-0.135-0.313-0.306-0.621-0.493-0.902c-0.194-0.293-0.417-0.561-0.66-0.803v0.006
			c-0.243-0.25-0.511-0.465-0.796-0.664c-0.288-0.189-0.587-0.357-0.903-0.488c-0.243-0.105-0.361-0.387-0.258-0.637
			c0.104-0.246,0.394-0.361,0.637-0.258c0.379,0.16,0.736,0.352,1.07,0.578c0.34,0.232,0.656,0.49,0.938,0.777
			c0.293,0.289,0.557,0.602,0.782,0.939C28.931,18.336,29.125,18.691,29.289,19.07L29.289,19.07z M29.289,19.07"/>
		<path fill="#FFFFFF" d="M28.837,20.336c-0.431,0-0.816-0.258-0.983-0.654c-0.118-0.275-0.271-0.553-0.441-0.803
			c-0.136-0.205-0.285-0.393-0.448-0.574l-0.143-0.139c-0.219-0.223-0.455-0.416-0.709-0.59c-0.25-0.168-0.518-0.316-0.803-0.438
			c-0.542-0.234-0.792-0.842-0.57-1.391c0.233-0.549,0.887-0.799,1.408-0.576c0.417,0.172,0.81,0.389,1.167,0.631
			c0.407,0.279,0.74,0.557,1.029,0.855c0.319,0.32,0.607,0.664,0.848,1.016c0.246,0.367,0.459,0.758,0.633,1.164
			c0.229,0.555-0.028,1.184-0.57,1.414C29.125,20.307,28.979,20.336,28.837,20.336z"/>
	</g>
	<g>
		<path fill-rule="evenodd" clip-rule="evenodd" fill="#FFFFFF" d="M32.392,19.137c0.066,0.264-0.09,0.535-0.351,0.602
			c-0.261,0.068-0.525-0.092-0.595-0.348c-0.19-0.699-0.469-1.367-0.83-1.982c-0.358-0.625-0.8-1.197-1.317-1.717
			c-0.518-0.514-1.095-0.955-1.713-1.32c-0.615-0.354-1.289-0.635-1.981-0.82c-0.264-0.072-0.417-0.34-0.347-0.598
			c0.069-0.26,0.34-0.416,0.598-0.348c0.774,0.209,1.528,0.529,2.217,0.928c0.698,0.4,1.345,0.9,1.915,1.467
			c0.573,0.574,1.07,1.221,1.47,1.922C31.863,17.611,32.177,18.361,32.392,19.137L32.392,19.137z M32.392,19.137"/>
		<path fill="#FFFFFF" d="M31.919,20.338c-0.479,0-0.907-0.326-1.039-0.791c-0.174-0.65-0.431-1.27-0.768-1.846
			c-0.33-0.574-0.744-1.109-1.227-1.6c-0.473-0.465-1.012-0.879-1.599-1.229c-0.573-0.328-1.192-0.584-1.835-0.758
			c-0.57-0.156-0.907-0.744-0.758-1.311c0.122-0.469,0.549-0.799,1.036-0.799l0.274,0.033c0.83,0.227,1.622,0.561,2.359,0.992
			c0.729,0.416,1.418,0.941,2.033,1.557c0.618,0.611,1.143,1.299,1.57,2.043c0.421,0.719,0.751,1.508,0.987,2.35
			c0.149,0.584-0.191,1.17-0.765,1.324L31.919,20.338z"/>
	</g>
	<g>
		<path fill-rule="evenodd" clip-rule="evenodd" fill="#FFFFFF" d="M35.391,19.17c0.045,0.266-0.128,0.521-0.393,0.57
			c-0.261,0.049-0.518-0.117-0.57-0.385c-0.211-1.078-0.587-2.113-1.102-3.08l-0.017-0.027c-0.515-0.951-1.168-1.834-1.95-2.617
			c-0.788-0.781-1.678-1.449-2.641-1.963s-2.002-0.889-3.086-1.102c-0.261-0.059-0.438-0.313-0.383-0.574
			c0.049-0.268,0.31-0.438,0.574-0.389c1.171,0.236,2.3,0.641,3.35,1.207c1.057,0.566,2.02,1.281,2.87,2.133h0.004
			c0.841,0.844,1.557,1.803,2.12,2.846l0.014,0.025C34.748,16.867,35.151,17.992,35.391,19.17L35.391,19.17z M35.391,19.17"/>
		<path fill="#FFFFFF" d="M34.908,20.336c-0.512,0-0.956-0.365-1.054-0.869c-0.197-1.008-0.552-1.992-1.042-2.916
			c-0.511-0.936-1.133-1.77-1.866-2.51c-0.758-0.746-1.599-1.373-2.502-1.859c-0.928-0.492-1.911-0.84-2.923-1.041
			c-0.594-0.133-0.963-0.703-0.841-1.27c0.087-0.49,0.535-0.857,1.053-0.857l0.198,0.018c1.24,0.246,2.419,0.67,3.521,1.26
			c1.032,0.561,1.984,1.256,2.832,2.068h0.003l0.174,0.174c0.883,0.883,1.627,1.887,2.221,2.979
			c0.605,1.119,1.032,2.307,1.282,3.541c0.102,0.598-0.284,1.156-0.858,1.262L34.908,20.336z"/>
	</g>
	<g>
		<path fill-rule="evenodd" clip-rule="evenodd" fill="#FFFFFF" d="M37.917,32.404c0.22,0.164,0.261,0.463,0.104,0.682
			c-0.16,0.219-0.462,0.264-0.681,0.104l-7.607-5.578l-1.286,1.287c-1.873,1.875-4.688,1.428-7.28-0.15
			c-0.966-0.588-1.911-1.338-2.749-2.182c-0.837-0.838-1.595-1.779-2.186-2.75c-1.574-2.596-2.029-5.406-0.16-7.27l1.3-1.297
			l-5.247-7.154l-2.363,2.354l-0.021,0.02c-1.863,1.859-2.35,4.32-1.397,7.313c0.99,3.109,3.51,6.77,7.614,10.914l0.167,0.16h0.003
			c0.278,0.281,0.511,0.512,0.688,0.686c3.989,3.867,7.537,6.238,10.547,7.158c2.901,0.891,5.289,0.406,7.086-1.387l0.024-0.027
			l0.056-0.057l0.632-0.648c0.185-0.191,0.494-0.191,0.685-0.008c0.195,0.191,0.198,0.498,0.011,0.688l-0.629,0.646v0.008
			l-0.063,0.059l-0.024,0.031c-2.067,2.064-4.789,2.625-8.063,1.627c-3.158-0.969-6.839-3.416-10.939-7.395
			c-0.285-0.275-0.515-0.502-0.702-0.691l-0.17-0.168c-4.219-4.25-6.812-8.045-7.851-11.297c-1.074-3.375-0.5-6.168,1.637-8.303
			L9.07,9.756l2.773-2.748c0.014-0.018,0.034-0.031,0.052-0.045c0.216-0.16,0.521-0.111,0.681,0.104l5.801,7.916
			c0.163,0.195,0.159,0.48-0.021,0.668l-1.592,1.592c-1.486,1.48-1.053,3.848,0.303,6.068c0.549,0.896,1.251,1.775,2.043,2.57
			c0.793,0.789,1.672,1.494,2.572,2.043c2.221,1.35,4.584,1.777,6.078,0.283l1.574-1.574h0.007c0.163-0.168,0.427-0.195,0.629-0.053
			L37.917,32.404z M37.917,32.404"/>
		<path fill="#FFFFFF" d="M30.067,38.697c-0.991,0-2.054-0.174-3.155-0.508c-3.313-1.014-7.069-3.547-11.18-7.533
			c-0.289-0.277-0.525-0.508-0.713-0.701l-0.167-0.164c-4.215-4.246-6.905-8.125-7.992-11.533c-1.14-3.588-0.542-6.58,1.779-8.895
			l2.933-2.883c0.396-0.307,1.14-0.213,1.477,0.242l5.801,7.916c0.337,0.396,0.316,1.021-0.077,1.422l-1.595,1.596
			c-1.616,1.609-0.268,4.277,0.389,5.348c0.508,0.834,1.182,1.686,1.957,2.467c0.775,0.766,1.626,1.443,2.464,1.953
			c2.207,1.342,4.216,1.52,5.355,0.369l1.807-1.744c0.348-0.203,0.813-0.188,1.154,0.055l7.958,5.828
			c0.479,0.357,0.58,1.016,0.236,1.494c-0.345,0.469-1.039,0.574-1.505,0.236l-7.2-5.285l-0.929,0.934
			c-1.876,1.867-4.872,1.84-7.999-0.063c-1.008-0.611-1.999-1.4-2.86-2.271c-0.886-0.883-1.672-1.873-2.272-2.857
			c-1.936-3.186-1.96-6.098-0.073-7.986l0.941-0.941l-4.545-6.203l-1.884,1.873c-1.728,1.729-2.147,3.99-1.271,6.746
			c0.977,3.061,3.485,6.65,7.461,10.664h0.007l0.861,0.855c3.861,3.742,7.329,6.102,10.304,7.014
			c2.662,0.813,4.858,0.402,6.502-1.242l0.709-0.725c0.379-0.4,1.099-0.418,1.512-0.021c0.205,0.205,0.316,0.469,0.323,0.754
			c0.004,0.285-0.104,0.559-0.306,0.764l-0.646,0.668C34.039,37.93,32.19,38.697,30.067,38.697z"/>
	</g>
	<g>
		<path fill-rule="evenodd" clip-rule="evenodd" fill="#FFFFFF" d="M35.794,34.527c0.219,0.16,0.265,0.465,0.104,0.682
			c-0.16,0.219-0.463,0.26-0.682,0.107l-1.984-1.459l-3.975-2.912c-0.22-0.156-0.268-0.463-0.108-0.678
			c0.16-0.219,0.466-0.262,0.682-0.105l1.991,1.453L35.794,34.527z M35.794,34.527"/>
		<path fill="#FFFFFF" d="M35.506,35.99c-0.223,0-0.441-0.066-0.626-0.193l-5.967-4.379c-0.229-0.168-0.382-0.414-0.427-0.695
			c-0.046-0.285,0.021-0.566,0.19-0.803c0.341-0.459,1.046-0.563,1.498-0.23l5.967,4.365c0.229,0.17,0.379,0.42,0.428,0.703
			c0.041,0.283-0.031,0.568-0.202,0.799C36.169,35.828,35.846,35.99,35.506,35.99z"/>
	</g>
	<g>
		<path fill-rule="evenodd" clip-rule="evenodd" fill="#FFFFFF" d="M9.668,9.764c-0.16-0.215-0.107-0.521,0.104-0.682
			c0.215-0.16,0.521-0.117,0.681,0.105l1.453,1.986l1.459,1.988l1.456,1.984c0.16,0.219,0.118,0.521-0.101,0.682
			s-0.524,0.115-0.681-0.105l-2.912-3.971L9.668,9.764z M9.668,9.764"/>
		<path fill="#FFFFFF" d="M14.429,16.506c-0.341,0-0.667-0.16-0.865-0.441l-4.368-5.953C8.852,9.639,8.952,8.969,9.418,8.617
			c0.49-0.357,1.175-0.236,1.508,0.229l4.368,5.957c0.348,0.479,0.247,1.15-0.229,1.498C14.881,16.436,14.658,16.506,14.429,16.506z
			"/>
	</g>
</g>
</svg>
