<?xml version="1.0" encoding="utf-8"?>
<!-- Generator: Adobe Illustrator 16.0.0, SVG Export Plug-In . SVG Version: 6.00 Build 0)  -->
<!DOCTYPE svg PUBLIC "-//W3C//DTD SVG 1.1//EN" "http://www.w3.org/Graphics/SVG/1.1/DTD/svg11.dtd">
<svg version="1.1" id="圖層_1" xmlns="http://www.w3.org/2000/svg" xmlns:xlink="http://www.w3.org/1999/xlink" x="0px" y="0px"
	 width="71px" height="71px" viewBox="0 0 71 71" enable-background="new 0 0 71 71" xml:space="preserve">
<g>
	<g>
		<g>
			<g>
				<path fill="#4BDBDD" d="M51.536,58.472H19.461c-0.488,0-0.885-0.394-0.885-0.882V34.454c0-0.488,0.396-0.884,0.885-0.884h32.075
					c0.488,0,0.884,0.396,0.884,0.884V57.59C52.42,58.078,52.024,58.472,51.536,58.472z M20.341,56.708h30.314V35.336H20.341V56.708
					z"/>
			</g>
		</g>
		<g>
			<g>
				<g>
					<path fill="#4BDBDD" d="M24.439,34.103c-0.491,0-0.884-0.394-0.884-0.882V24.13c-0.014-0.121-0.37-4.767,2.759-8.178
						c2.093-2.272,5.187-3.424,9.214-3.424c0.488,0,0.881,0.394,0.881,0.882s-0.393,0.882-0.881,0.882
						c-3.504,0-6.163,0.955-7.898,2.842c-2.612,2.829-2.313,6.881-2.31,6.924l0.004,9.162
						C25.324,33.709,24.925,34.103,24.439,34.103z"/>
				</g>
			</g>
			<g>
				<g>
					<path fill="#4BDBDD" d="M46.56,34.103c-0.488,0-0.884-0.394-0.884-0.882V24.13c0.008-0.114,0.303-4.167-2.306-6.995
						c-1.739-1.887-4.398-2.842-7.902-2.842c-0.484,0-0.884-0.394-0.884-0.882s0.399-0.882,0.884-0.882
						c4.027,0,7.125,1.151,9.214,3.424c3.133,3.411,2.773,8.057,2.755,8.253l0.004,9.016C47.44,33.709,47.048,34.103,46.56,34.103z"
						/>
				</g>
			</g>
		</g>
		<g>
			<g>
				<g>
					<path fill="#4BDBDD" d="M27.854,34.472c-0.488,0-0.884-0.394-0.884-0.882v-7.571c-0.011-0.123-0.289-4.523,2.402-7.412
						c1.482-1.593,3.554-2.4,6.148-2.4c0.484,0,0.88,0.396,0.88,0.884s-0.396,0.882-0.88,0.882c-2.085,0-3.718,0.618-4.854,1.837
						c-2.175,2.334-1.936,6.109-1.933,6.148v7.631C28.734,34.078,28.343,34.472,27.854,34.472z"/>
				</g>
			</g>
			<g>
				<g>
					<path fill="#4BDBDD" d="M43.146,34.472c-0.488,0-0.884-0.394-0.884-0.882v-7.571c0.007-0.098,0.231-3.896-1.936-6.216
						c-1.134-1.215-2.766-1.83-4.848-1.83c-0.488,0-0.884-0.394-0.884-0.882s0.396-0.884,0.884-0.884c2.595,0,4.662,0.807,6.148,2.4
						c2.691,2.891,2.409,7.289,2.398,7.475v7.508C44.025,34.078,43.634,34.472,43.146,34.472z"/>
				</g>
			</g>
		</g>
		<g>
			<path fill="#4BDBDD" d="M37.542,43.17c0-1.128-0.916-2.042-2.042-2.042c-1.13,0-2.043,0.915-2.043,2.042
				c0,0.806,0.479,1.49,1.159,1.82v3.862c0,0.488,0.396,0.884,0.884,0.884s0.88-0.396,0.88-0.884V44.99
				C37.061,44.66,37.542,43.976,37.542,43.17z"/>
		</g>
	</g>
	<g>
		<path fill="#4BDBDD" d="M35.5,69.489c-18.741,0-33.989-15.248-33.989-33.989S16.759,1.511,35.5,1.511S69.489,16.759,69.489,35.5
			S54.241,69.489,35.5,69.489z M35.5,3.277C17.731,3.277,3.275,17.732,3.275,35.5S17.731,67.723,35.5,67.723
			c17.768,0,32.222-14.455,32.222-32.223S53.268,3.277,35.5,3.277z"/>
	</g>
</g>
</svg>
