<?xml version="1.0" encoding="utf-8"?>
<!-- Generator: Adobe Illustrator 16.0.0, SVG Export Plug-In . SVG Version: 6.00 Build 0)  -->
<!DOCTYPE svg PUBLIC "-//W3C//DTD SVG 1.1//EN" "http://www.w3.org/Graphics/SVG/1.1/DTD/svg11.dtd">
<svg version="1.1" id="圖層_1" xmlns="http://www.w3.org/2000/svg" xmlns:xlink="http://www.w3.org/1999/xlink" x="0px" y="0px"
	 width="71px" height="71px" viewBox="0 0 71 71" enable-background="new 0 0 71 71" xml:space="preserve">
<g>
	<g>
		<path fill="#4BDBDD" d="M34.25,49.537c-0.358,0-0.706-0.143-0.957-0.396L15.87,31.724c-0.525-0.531-0.525-1.392,0-1.92
			c0.531-0.532,1.393-0.532,1.923,0L34.25,46.258l34.123-34.126c0.531-0.529,1.392-0.529,1.923,0c0.527,0.531,0.527,1.392,0,1.921
			L35.21,49.141C34.956,49.395,34.611,49.537,34.25,49.537z"/>
	</g>
	<g>
		<path fill="#4BDBDD" d="M66.107,23.759c-0.449,0.425-0.918,0.825-1.407,1.199c1.152,3.309,1.819,6.844,1.819,10.542
			c0,17.768-14.453,32.223-32.222,32.223C16.53,67.723,2.073,53.268,2.073,35.5S16.53,3.277,34.298,3.277
			c10.018,0,18.959,4.617,24.87,11.812c0.354-0.484,0.718-0.964,1.087-1.438C54.02,6.247,44.713,1.511,34.298,1.511
			C15.557,1.511,0.309,16.759,0.309,35.5s15.248,33.989,33.989,33.989S68.287,54.241,68.287,35.5
			C68.287,31.361,67.479,27.425,66.107,23.759z"/>
	</g>
</g>
</svg>
